#!OML:ASF H:\Terrain\Patient Classification 1\Animal2\Wednesday\Animal2.ASF
:FULLY-SPECIFIED
:DEGREES
1002
root 9.15175 15.6828 -20.665 19.4663 5.77265 -0.164934
lowerback 22.3332 1.02483 2.4658
upperback 11.7006 1.92538 4.46679
thorax 0.252078 0.929979 2.97233
lowerneck 5.74027 6.48302 4.98361
upperneck 17.4232 9.19694 -4.21561
head 4.73887 4.5669 -1.88677
rclavicle 0 -7.15625e-015
rhumerus 20.5707 -25.1123 -52.0326
rradius 143.716
rwrist -53.5587
rhand 35.2827 40.2239
rfingers 7.12502
rthumb 58.3832 24.8513
lclavicle 0 -7.15625e-015
lhumerus -59.5845 6.2883 96.9188
lradius 48.5793
lwrist -1.09066
lhand 6.8246 18.3784
lfingers 7.12502
lthumb 32.1087 45.5625
rfemur -41.5593 -0.791092 -4.79097
rtibia 50.1656
rfoot -26.1151 -11.7258
rtoes -30.4991
lfemur -47.6329 2.63982 5.92432
ltibia 49.1254
lfoot -21.8602 -1.03784
ltoes -43.3867
1003
root 9.14914 15.6709 -20.6584 19.3745 5.64841 -0.54945
lowerback 22.4131 1.00878 2.82819
upperback 11.548 1.98136 4.50586
thorax 0.0550881 0.969752 2.79221
lowerneck 5.80158 6.46946 5.47426
upperneck 17.1687 9.20633 -4.41243
head 4.68256 4.59376 -2.03012
rclavicle -1.59028e-014 -1.19271e-014
rhumerus 20.3364 -25.3059 -52.0227
rradius 143.599
rwrist -53.7602
rhand 35.5066 40.5413
rfingers 7.12502
rthumb 58.5776 25.3497
lclavicle -1.59028e-014 -1.19271e-014
lhumerus -58.0011 5.89653 96.3612
lradius 47.4901
lwrist -2.09103
lhand 4.77331 18.2128
lfingers 7.12502
lthumb 30.1537 45.7721
rfemur -41.6114 -0.658772 -4.38304
rtibia 50.132
rfoot -26.4092 -11.2125
rtoes -29.6694
lfemur -47.5119 2.78501 6.37312
ltibia 49.2793
lfoot -21.8939 -1.20655
ltoes -42.9634
1004
root 9.14831 15.6635 -20.6461 19.6017 5.32467 -0.299168
lowerback 22.1691 1.07126 2.5807
upperback 11.4119 2.00217 4.33135
thorax 0.0196434 0.975062 2.74029
lowerneck 5.86093 6.46471 6.1256
upperneck 16.8819 9.24053 -4.69748
head 4.62975 4.6374 -2.22533
rclavicle 3.18055e-014 8.74653e-015
rhumerus 20.1991 -25.6766 -52.0742
rradius 143.672
rwrist -54.0768
rhand 35.8523 39.9902
rfingers 7.12502
rthumb 58.8771 25.0828
lclavicle 3.18055e-014 8.74653e-015
lhumerus -56.2002 5.51774 95.6806
lradius 46.2333
lwrist -3.03411
lhand 2.76552 18.5066
lfingers 7.12502
lthumb 28.2365 46.3991
rfemur -41.9795 -0.853199 -4.68931
rtibia 50.2588
rfoot -26.7311 -10.5413
rtoes -28.4758
lfemur -47.6517 2.78891 6.09459
ltibia 49.5432
lfoot -22.0395 -0.821797
ltoes -43.1919
1005
root 9.15439 15.6569 -20.6359 19.7399 5.04954 -0.215844
lowerback 21.9787 1.09571 2.57153
upperback 11.3009 2.02025 4.16619
thorax -0.00468087 0.988294 2.5643
lowerneck 6.00305 6.39654 6.93171
upperneck 16.4514 9.20537 -5.07211
head 4.52645 4.65346 -2.47977
rclavicle -6.36111e-015 -3.26007e-014
rhumerus 20.0613 -26.0309 -52.1161
rradius 143.892
rwrist -54.1155
rhand 35.6427 39.2677
rfingers 7.12502
rthumb 58.6956 24.1873
lclavicle -6.36111e-015 -3.26007e-014
lhumerus -54.3707 4.9017 95.0985
lradius 44.939
lwrist -3.75342
lhand 0.366905 18.6285
lfingers 7.12502
lthumb 25.9418 46.8783
rfemur -42.2817 -0.969546 -4.8484
rtibia 50.4253
rfoot -26.6829 -10.1224
rtoes -27.6556
lfemur -47.7099 2.84321 5.9655
ltibia 49.7719
lfoot -22.1753 -0.464906
ltoes -43.3946
1006
root 9.16188 15.6514 -20.6328 19.6289 4.84637 -0.47666
lowerback 22.0649 1.09162 2.90069
upperback 11.1759 2.07933 4.0715
thorax -0.169856 1.03135 2.25937
lowerneck 6.43685 6.23739 7.99923
upperneck 15.7826 9.10283 -5.72426
head 4.32151 4.64466 -2.8768
rclavicle 5.40694e-014 4.69132e-014
rhumerus 19.7586 -26.2414 -52.1278
rradius 143.968
rwrist -53.7487
rhand 35.1744 39.1461
rfingers 7.12502
rthumb 58.289 23.6869
lclavicle 5.40694e-014 4.69132e-014
lhumerus -52.5762 3.90712 94.7223
lradius 43.4493
lwrist -4.31617
lhand -2.41594 18.1008
lfingers 7.12502
lthumb 23.2744 46.7141
rfemur -42.4113 -0.864247 -4.60803
rtibia 50.5913
rfoot -26.4967 -10.162
rtoes -27.7704
lfemur -47.5646 3.0148 6.18315
ltibia 49.9994
lfoot -22.1638 -0.318336
ltoes -43.4324
1007
root 9.16871 15.6481 -20.6313 19.5656 4.67162 -0.651074
lowerback 22.0713 1.08191 3.11081
upperback 11.0492 2.10835 4.02656
thorax -0.302516 1.05313 2.08308
lowerneck 6.71837 6.14249 8.89423
upperneck 15.4409 9.07747 -6.29142
head 4.2347 4.66408 -3.20865
rclavicle 1.51076e-014 -3.18055e-015
rhumerus 19.4154 -26.2192 -52.0729
rradius 143.784
rwrist -53.107
rhand 34.7534 39.7467
rfingers 7.12502
rthumb 57.9222 23.9557
lclavicle 1.51076e-014 -3.18055e-015
lhumerus -50.7432 2.89616 94.4738
lradius 41.8455
lwrist -4.80175
lhand -4.8815 17.2773
lfingers 7.12502
lthumb 20.9073 46.1706
rfemur -42.5366 -0.870242 -4.42489
rtibia 50.7216
rfoot -26.5011 -10.1301
rtoes -27.8214
lfemur -47.5483 3.11238 6.33281
ltibia 50.2427
lfoot -22.0688 -0.377862
ltoes -42.8493
1008
root 9.17316 15.6442 -20.6272 19.5713 4.53588 -0.585659
lowerback 21.9949 1.05773 3.13082
upperback 10.9732 2.07681 3.93036
thorax -0.343697 1.04053 1.97505
lowerneck 6.55883 6.10667 9.54745
upperneck 15.4929 9.07128 -6.56069
head 4.3179 4.68272 -3.39002
rclavicle 1.59028e-015 1.90833e-014
rhumerus 19.2988 -26.3525 -52.1572
rradius 143.68
rwrist -52.9375
rhand 34.8476 40.0164
rfingers 7.12502
rthumb 58.0043 24.2989
lclavicle 1.59028e-015 1.90833e-014
lhumerus -48.7781 1.7482 94.0903
lradius 40.4673
lwrist -4.53806
lhand -6.41535 17.5447
lfingers 7.12502
lthumb 19.433 46.5936
rfemur -42.6431 -0.921763 -4.52494
rtibia 50.8059
rfoot -26.3462 -10.2483
rtoes -28.8646
lfemur -47.6245 3.0578 6.2731
ltibia 50.4825
lfoot -22.0848 -0.548329
ltoes -42.038
1009
root 9.17806 15.6383 -20.619 19.5366 4.36269 -0.486993
lowerback 22.0595 1.08282 3.00785
upperback 10.8034 2.09479 3.87218
thorax -0.56512 1.0441 1.97343
lowerneck 6.60176 6.04395 10.1934
upperneck 15.493 9.02612 -6.70301
head 4.34451 4.69014 -3.5403
rclavicle -4.77083e-015 1.51076e-014
rhumerus 19.136 -26.677 -52.1474
rradius 143.792
rwrist -53.2531
rhand 35.3289 39.6365
rfingers 7.12502
rthumb 58.4234 24.3012
lclavicle -4.77083e-015 1.51076e-014
lhumerus -46.9472 0.349412 93.7131
lradius 39.1968
lwrist -3.92725
lhand -7.60872 18.0721
lfingers 7.12502
lthumb 18.2853 47.2327
rfemur -42.6921 -0.902538 -4.67797
rtibia 50.8763
rfoot -26.0156 -10.5516
rtoes -30.7912
lfemur -47.5686 2.98561 6.16671
ltibia 50.717
lfoot -22.2512 -0.266035
ltoes -42.5621
1010
root 9.18624 15.6303 -20.6107 19.5054 4.10829 -0.471736
lowerback 22.1574 1.15153 2.83548
upperback 10.5493 2.16514 3.86277
thorax -0.899867 1.06933 2.03821
lowerneck 6.68827 6.04628 10.7748
upperneck 15.6967 9.04546 -6.60496
head 4.42133 4.73563 -3.6027
rclavicle -1.51076e-014 2.70347e-014
rhumerus 18.7233 -26.8962 -51.9116
rradius 143.927
rwrist -53.4701
rhand 35.2935 39.2933
rfingers 7.12502
rthumb 58.3926 23.9295
lclavicle -1.51076e-014 2.70347e-014
lhumerus -45.2509 -1.0795 93.3892
lradius 37.7699
lwrist -3.84571
lhand -8.88588 18.5416
lfingers 7.12502
lthumb 17.0563 47.8129
rfemur -42.7802 -0.850227 -4.75311
rtibia 50.9389
rfoot -25.7607 -10.7476
rtoes -32.1288
lfemur -47.4649 2.99776 6.1209
ltibia 50.9532
lfoot -22.5111 0.013724
ltoes -43.0033
